HIERARCHY
ROOT RootJoint
{
    OFFSET   0.000000   0.000000   0.000000
    CHANNELS 6 Xposition Yposition Zposition Xrotation Yrotation Zrotation
    JOINT pelvis_lowerback
    {
        OFFSET   0.000000   0.093605   0.000000
        CHANNELS 3 Xrotation Yrotation Zrotation
        JOINT lowerback_torso
        {
            OFFSET   0.000000   0.100000   0.000000
            CHANNELS 3 Xrotation Yrotation Zrotation
            JOINT torso_head
            {
                OFFSET   0.000000   0.282350   0.000000
                CHANNELS 3 Xrotation Yrotation Zrotation
                End Site
                {
                    OFFSET   0.000000   0.192650   0.000000
                }
            }
            JOINT rTorso_Clavicle
            {
                OFFSET  -0.001000   0.157500   0.000000
                CHANNELS 3 Xrotation Yrotation Zrotation
                JOINT rShoulder
                {
                    OFFSET  -0.117647   0.000000   0.000000
                    CHANNELS 3 Xrotation Yrotation Zrotation
                    JOINT rElbow
                    {
                        OFFSET  -0.245000   0.000000   0.000000
                        CHANNELS 3 Xrotation Yrotation Zrotation
                        JOINT rWrist
                        {
                            OFFSET  -0.240000   0.000000   0.000000
                            CHANNELS 3 Xrotation Yrotation Zrotation
                            End Site
                            {
                                OFFSET  -0.116353  -0.002500   0.000000
                            }
                        }
                    }
                }
            }
            JOINT lTorso_Clavicle
            {
                OFFSET   0.001000   0.157500   0.000000
                CHANNELS 3 Xrotation Yrotation Zrotation
                JOINT lShoulder
                {
                    OFFSET   0.117647   0.000000   0.000000
                    CHANNELS 3 Xrotation Yrotation Zrotation
                    JOINT lElbow
                    {
                        OFFSET   0.245000   0.000000   0.000000
                        CHANNELS 3 Xrotation Yrotation Zrotation
                        JOINT lWrist
                        {
                            OFFSET   0.240000   0.000000   0.000000
                            CHANNELS 3 Xrotation Yrotation Zrotation
                            End Site
                            {
                                OFFSET   0.116353  -0.002500   0.000000
                            }
                        }
                    }
                }
            }
        }
    }
    JOINT rHip
    {
        OFFSET  -0.100000  -0.051395   0.000000
        CHANNELS 3 Xrotation Yrotation Zrotation
        JOINT rKnee
        {
            OFFSET   0.000000  -0.410000   0.000000
            CHANNELS 3 Xrotation Yrotation Zrotation
            JOINT rAnkle
            {
                OFFSET   0.000000  -0.390000   0.000000
                CHANNELS 3 Xrotation Yrotation Zrotation
                JOINT rToeJoint
                {
                    OFFSET   0.000000  -0.050000   0.130000
                    CHANNELS 3 Xrotation Yrotation Zrotation
                    End Site
                    {
                        OFFSET  -0.010000   0.002000   0.060000
                    }
                }
            }
        }
    }
    JOINT lHip
    {
        OFFSET   0.100000  -0.051395   0.000000
        CHANNELS 3 Xrotation Yrotation Zrotation
        JOINT lKnee
        {
            OFFSET   0.000000  -0.410000   0.000000
            CHANNELS 3 Xrotation Yrotation Zrotation
            JOINT lAnkle
            {
                OFFSET   0.000000  -0.390000   0.000000
                CHANNELS 3 Xrotation Yrotation Zrotation
                JOINT lToeJoint
                {
                    OFFSET   0.000000  -0.050000   0.130000
                    CHANNELS 3 Xrotation Yrotation Zrotation
                    End Site
                    {
                        OFFSET   0.010000   0.002000   0.060000
                    }
                }
            }
        }
    }
}
MOTION
Frames: 11
Frame Time:   0.008333
 -2.281315   0.845191   3.855018  -5.202187 -20.475598  -4.975702  13.699613  -2.492354  -0.486999   5.498794  -5.158141   4.457580   7.757833  -9.165906   2.121826  -6.131080   1.872421   0.457704 -33.150069  -9.643763  21.909358   0.049942  80.415914  -0.047398  -2.220564   5.707513  -1.910821  -2.922125  -8.367918   3.335180 -21.361739 -36.700680 -46.062185 -179.998055 -67.876255 -179.998643   1.116505 -10.054541  -2.253523 -21.967452 -17.271349 -26.929692  44.694313  -0.001083   0.001286   3.489932  -3.672629   9.062415 -28.005532   0.000685  -0.000644 -17.927152   7.675642  26.027978  45.223895   0.008393   0.001737 -19.128007   5.581179   0.824549  -0.282771  -0.003786  -0.002216
 -2.277638   0.844276   3.856877  -5.104376 -20.518653  -5.139352  13.584728  -2.496356  -0.314331   5.617368  -5.183636   4.618784   7.816104  -9.140101   2.210234  -6.148136   1.492100   0.579697 -33.394935  -9.908987  21.726905   0.050805  79.929974  -0.048065  -2.219029   5.797053  -1.902085  -2.766027  -7.914146   3.131722 -21.071397 -36.358860 -46.220520 -179.998695 -67.910149 -179.999034   1.129201 -10.055228  -2.259205 -21.911564 -17.257569 -26.945145  44.365829  -0.001557   0.001341   3.721701  -3.614498   9.251004 -27.886205   0.000611  -0.000550 -17.662464   7.786341  26.195267  45.077206   0.006767   0.001439 -18.902872   5.587957   0.941699  -0.033191  -0.003470  -0.001837
 -2.273724   0.843348   3.858939  -5.014201 -20.532898  -5.313198  13.457871  -2.504547  -0.142501   5.736270  -5.218000   4.793375   7.870011  -9.112289   2.298746  -6.152078   1.088248   0.713932 -33.614812 -10.196744  21.548365   0.050699  79.455520  -0.047848  -2.221611   5.789680  -1.928396  -2.585651  -7.465248   2.928181 -20.765337 -36.028787 -46.368852 -179.999235 -67.949201 -179.999356   1.138582 -10.056808  -2.308361 -21.815953 -17.245077 -26.961621  44.002846  -0.002111   0.001339   3.986149  -3.565681   9.405837 -27.798293   0.000577  -0.000435 -17.404560   7.930132  26.297123  45.019360   0.005388   0.001173 -18.687110   5.595728   1.050151   0.213638  -0.003028  -0.001480
 -2.269611   0.842330   3.861125  -4.919668 -20.529317  -5.500770  13.321343  -2.519774   0.028874   5.843338  -5.257847   4.974326   7.919450  -9.085676   2.383407  -6.147846   0.683841   0.852514 -33.814497 -10.486881  21.377999   0.049586  79.004329  -0.046688  -2.225992   5.725083  -1.970061  -2.405259  -7.030807   2.736716 -20.464977 -35.712954 -46.503249 -179.999654 -67.987849 -179.999615   1.145901 -10.076197  -2.371516 -21.707001 -17.233340 -26.972316  43.627662  -0.002656   0.001291   4.261671  -3.524750   9.536875 -27.719199   0.000569  -0.000326 -17.150630   8.086745  26.353011  44.993434   0.004285   0.000953 -18.484795   5.603117   1.150802   0.439905  -0.002521  -0.001194
 -2.265864   0.842123   3.862845  -4.912237 -20.466745  -5.594480  13.303298  -2.546279  -0.003585   5.990885  -5.302300   5.119313   7.961422  -9.061660   2.468879  -6.126872   0.286665   1.089313 -33.977338 -10.800598  21.261710   0.045232  78.581701  -0.042418  -2.230272   5.652962  -2.025209  -2.233068  -6.620352   2.551525 -20.165665 -35.402174 -46.603569 179.999826 -68.036112 -179.999941   1.155969 -10.075573  -2.466934 -21.484613 -17.237840 -27.040191  43.125730  -0.003268   0.001072   4.653022  -3.554458   9.597623 -27.720524   0.000453  -0.000261 -17.205521   8.243838  26.253366  45.181700   0.003918   0.000819 -19.218156   5.618923   1.035907   0.106050  -0.003259  -0.001424
 -2.262489   0.842245   3.864487  -4.957327 -20.480852  -5.693001  13.286229  -2.521595  -0.083027   6.156902  -5.311077   5.205522   8.008668  -9.038087   2.533426  -6.092692  -0.086789   1.326171 -34.114005 -11.103316  21.166637   0.040754  78.182639  -0.037973  -2.236144   5.548238  -2.017366  -2.060252  -6.215494   2.378039 -19.873844 -35.102715 -46.696759 179.999394 -68.080590 179.999765   1.164584 -10.064540  -2.549531 -21.240771 -17.255106 -27.089747  42.593140  -0.003502   0.001179   5.127283  -3.602382   9.633846 -25.420730   0.004420  -0.001581 -17.240513   8.388642  26.158484  45.435136   0.003690   0.000597 -19.626937   5.650580   1.008034  -0.541227  -0.004190  -0.001734
 -2.259390   0.842532   3.866089  -5.017259 -20.561863  -5.800078  13.252208  -2.468643  -0.180213   6.306544  -5.294158   5.254045   8.053886  -9.015375   2.586227  -6.058083  -0.430423   1.540877 -34.239762 -11.381963  21.077985   0.037039  77.809580  -0.034253  -2.242067   5.434617  -1.975068  -1.892167  -5.821917   2.215076 -19.594299 -34.816527 -46.783260 179.999079 -68.120601 179.999532   1.172458 -10.050169  -2.616325 -21.011854 -17.300482 -27.116759  42.069019  -0.003381   0.001559   5.528740  -3.656632   9.668164 -25.600581   0.003287  -0.001008 -17.239292   8.528920  26.078400  45.676860   0.003373   0.000302 -19.902499   5.683453   1.006130  -1.225903  -0.004622  -0.001619
 -2.256342   0.842860   3.867827  -5.122544 -20.604042  -5.908475  13.248930  -2.396638  -0.282506   6.419852  -5.271176   5.302668   8.135283  -8.946027   2.657417  -5.998186  -0.818446   1.694591 -34.386711 -11.760716  20.980273   0.036856  77.310380  -0.033768  -2.271656   5.495867  -1.910145  -1.715298  -5.457262   2.119957 -19.217491 -34.564195 -46.875107 179.998941 -68.157122 179.999442   1.179578 -10.081731  -2.644194 -20.677849 -17.423449 -27.158922  41.413095  -0.003413   0.002113   6.183375  -3.696080   9.792860 -26.884263   0.001485   0.001760 -17.275095   8.603790  25.982076  46.076073   0.003412  -0.000051 -20.002819   5.702243   1.157521  -2.152223  -0.004036  -0.001463
 -2.253242   0.843267   3.869666  -5.241135 -20.652594  -6.032865  13.234769  -2.320158  -0.359453   6.526760  -5.247637   5.353722   8.212173  -8.876911   2.722415  -5.939097  -1.214806   1.833597 -34.526615 -12.137737  20.869060   0.036768  76.825992  -0.033446  -2.302881   5.474563  -1.894515  -1.529931  -5.095459   2.027891 -18.842064 -34.320753 -46.956341 179.998871 -68.191683 179.999391   1.186830 -10.081174  -2.710320 -20.341180 -17.499912 -27.204989  40.787422  -0.003596   0.002427   6.743719  -3.700262   9.909031 -27.217110   0.000856   0.001852 -17.303598   8.667185  25.891944  46.496476   0.003461  -0.000409 -20.044560   5.717795   1.309752  -3.083864  -0.003520  -0.001157
 -2.250146   0.843673   3.871586  -5.371350 -20.727355  -6.160012  13.205245  -2.242813  -0.438725   6.620796  -5.222117   5.402274   8.285003  -8.811382   2.784051  -5.881316  -1.601734   1.963124 -34.657616 -12.500226  20.757616   0.036519  76.369421  -0.033077  -2.333768   5.417030  -1.899540  -1.349489  -4.740882   1.945113 -18.480355 -34.085523 -47.026125 179.998844 -68.224789 179.999359   1.193274 -10.081428  -2.784775 -20.027467 -17.593970 -27.255489  40.189820  -0.003543   0.002858   7.322376  -3.719053  10.018241 -27.529954   0.000364   0.002073 -17.306537   8.737851  25.802197  46.915152   0.003434  -0.000774 -20.069845   5.727686   1.453080  -3.973689  -0.003102  -0.000653
 -2.247071   0.844034   3.873562  -5.507494 -20.830102  -6.285751  13.159519  -2.167865  -0.523195   6.696643  -5.196466   5.444185   8.352558  -8.749925   2.841665  -5.826310  -1.971521   2.083356 -34.780857 -12.843313  20.649132   0.036082  75.941969  -0.032623  -2.363785   5.348608  -1.914222  -1.179659  -4.399802   1.871483 -18.138756 -33.861094 -47.087236 179.998854 -68.255559 179.999345   1.199371 -10.082069  -2.855104 -19.735756 -17.694422 -27.311555  39.606367  -0.003376   0.003355   7.893127  -3.756968  10.113336 -27.778478   0.000009   0.002236 -17.288458   8.813882  25.711760  47.332594   0.003333  -0.001149 -20.094553   5.733502   1.585440  -4.814692  -0.002777  -0.000014
